<svg xmlns="http://www.w3.org/2000/svg" xml:space="preserve" style="fill-rule:evenodd;clip-rule:evenodd;stroke-linejoin:round;stroke-miterlimit:2" viewBox="0 0 257 84"><path d="M0 0h256.992v83.332H0z" style="fill:none"/><path d="m70.563 26.602-7.444 35.02a7.309 7.309 0 0 1-7.149 5.789H21.877a1.418 1.418 0 0 1-1.389-1.716l6.847-32.21a8.689 8.689 0 0 1 8.499-6.883h34.729ZM55.33 42.56l1.24 1.581a.968.968 0 0 0 1.697-.346l2.384-8.875a.97.97 0 0 0-.956-1.22l-9.188.197a.97.97 0 0 0-.741 1.565l1.253 1.599a.968.968 0 0 1-.097 1.301L28.226 59.835c-.014.011.024.06.038.049l25.759-17.527a.969.969 0 0 1 1.307.203ZM29.409 63.007c-.012.009.013.028.005.016-.004-.004-.005-.01-.005-.016Zm0 0L51.68 52.743a.645.645 0 0 1 .785.196l1.347 1.774a.645.645 0 0 0 1.135-.213l2.023-7.094a.645.645 0 0 0-.958-.727L29.419 62.987a.025.025 0 0 0-.01.02Zm-3.663-5.047a.024.024 0 0 1-.015-.009c-.009-.011.004.018.015.009Zm0 0c.007.001.015 0 .022-.006l21.974-22.117a.645.645 0 0 0-.489-1.1l-7.361.358a.645.645 0 0 0-.466 1.057l1.421 1.714a.644.644 0 0 1 .011.81L25.746 57.96Z" style="fill:url(#a)"/><path d="M66.812 59.832a1.615 1.615 0 0 1 3.162.647l-.434 2.125a14.227 14.227 0 0 1-13.939 11.377H19.07a5.576 5.576 0 0 1-5.463-6.692l7.285-35.632A14.228 14.228 0 0 1 34.831 20.28h24.597a1.614 1.614 0 0 1 0 3.228H34.831c-5.225 0-9.73 3.676-10.776 8.796L16.77 67.936a2.347 2.347 0 0 0 2.3 2.817h36.531a11 11 0 0 0 10.776-8.796l.435-2.125Z" style="fill:#fff;fill-opacity:.6"/><path d="m34.372 68.067 26.706-20.936" style="fill:none"/><path d="M76.869 10.641a1.614 1.614 0 0 1 3.162.647l-8.578 41.955a1.613 1.613 0 1 1-3.162-.646l8.578-41.956Z" style="fill:#fff"/><path d="M66.069 23.508a1.614 1.614 0 0 1 0-3.228h20.582a1.614 1.614 0 0 1 0 3.228H66.069Z" style="fill:#fff"/><path d="M124.297 42.849H97.743L96.139 51.1h8.811l-4.04 20.787h8.891l4.041-20.787h8.851l1.604-8.251ZM135.314 71.887h10.253l-3.516-9.933c3.338-1.794 5.744-4.826 6.48-8.611 1.252-6.441-2.534-10.494-10.216-10.494H126.62l-5.644 29.038h8.891l1.549-7.971h2.003l1.895 7.971Zm-1.399-20.827h2.964c.845 0 3.028.081 2.6 2.283-.23 1.187-1.237 2.283-3.527 2.283h-2.924l.887-4.566ZM160.854 72.367c8.44 0 14.775-5.337 16.4-13.697l3.075-15.821h-8.811l-3.091 15.901c-.665 3.423-2.822 5.206-5.898 5.206-3.052 0-4.537-1.799-3.875-5.206l3.091-15.901h-8.891l-3.075 15.821c-1.625 8.359 2.674 13.697 11.075 13.697ZM209.126 42.849h-26.554l-1.604 8.251h8.812l-4.041 20.787h8.892l4.04-20.787h8.852l1.603-8.251ZM229.993 42.849l-2.039 10.494h-9.252l2.039-10.494h-8.891l-5.644 29.038h8.891l2.079-10.694h9.252l-2.079 10.694h8.892l5.644-29.038h-8.892Z" style="fill:#fff;fill-rule:nonzero"/><path d="M108.091 21.466c-3.892 0-7.442 2.975-8.161 6.679-.72 3.703 1.673 6.678 5.565 6.678 3.293 0 5.613-2.298 5.885-2.597l-1.047-1.299c-.21.24-1.968 2.041-4.477 2.041-2.684 0-4.408-2.14-3.886-4.823.522-2.684 3.077-4.824 5.761-4.824 2.518 0 3.507 1.732 3.609 1.948l1.551-1.298c-.14-.276-1.497-2.505-4.8-2.505ZM117.553 28.145c.521-2.684 3.076-4.824 5.76-4.824 2.684 0 4.407 2.14 3.886 4.824-.522 2.683-3.077 4.823-5.761 4.823s-4.407-2.14-3.885-4.823Zm-2.041 0c-.72 3.703 1.673 6.678 5.566 6.678 3.892 0 7.441-2.975 8.161-6.678.72-3.704-1.673-6.679-5.565-6.679-3.892 0-7.442 2.975-8.162 6.679ZM140.869 27.959l-3.782-6.307h-1.762L132.8 34.637h2.041l1.839-9.46a31021.8 31021.8 0 0 1 3.576 5.936l5.885-5.936-1.839 9.46h2.04l2.524-12.985h-1.762l-6.235 6.307ZM154.432 21.652l-2.525 12.985h2.041l.901-4.637h3.154c2.495 0 4.723-1.871 5.171-4.174.447-2.303-1.053-4.174-3.548-4.174h-5.194Zm4.833 1.855c1.292 0 2.119 1.027 1.868 2.319-.251 1.292-1.478 2.319-2.769 2.319h-3.154l.901-4.638h3.154ZM168.685 32.782l.775-3.988h5.658l.361-1.855h-5.658l.667-3.432h7.142l.361-1.855h-9.183l-2.524 12.985h9.368l.361-1.855h-7.328ZM188.637 34.637l.361-1.855h-6.307l2.163-11.13h-2.04l-2.524 12.985h8.347ZM201.252 34.637l.36-1.855h-6.307l2.164-11.13h-2.041l-2.524 12.985h8.348ZM205.518 34.637h2.041l2.524-12.985h-2.041l-2.524 12.985ZM224.645 21.652l-1.821 9.368-5.414-9.368h-1.762l-2.524 12.985h2.041l1.821-9.368 5.413 9.368h1.763l2.524-12.985h-2.041ZM238.203 27.774l-.361 1.855h2.505l-.397 2.04c-.196.186-1.574 1.299-3.777 1.299-2.684 0-4.407-2.14-3.886-4.823.522-2.684 3.077-4.824 5.761-4.824 2.519 0 3.507 1.732 3.61 1.948l1.551-1.298c-.141-.276-1.498-2.505-4.8-2.505-3.893 0-7.442 2.975-8.162 6.679-.72 3.703 1.673 6.678 5.565 6.678 3.491 0 5.794-2.162 6.034-2.412l.902-4.637h-4.545Z" style="fill:#fff;fill-opacity:.6"/><defs><linearGradient id="a" x1="0" x2="1" y1="0" y2="0" gradientTransform="scale(-71.9004) rotate(-39.532 -1.005 1.18)" gradientUnits="userSpaceOnUse"><stop offset="0" style="stop-color:#fff;stop-opacity:.6"/><stop offset=".49" style="stop-color:#fff;stop-opacity:.536471"/><stop offset="1" style="stop-color:#fff;stop-opacity:.36"/></linearGradient></defs></svg>